<svg viewBox="0 0 104 42" fill="none" xmlns="http://www.w3.org/2000/svg">
  <circle cx="1.33333" cy="1.83425" r="1.33333" fill="#FF3A3A"/>
  <circle cx="6.66683" cy="1.83425" r="1.33333" fill="#FF3A3A"/>
  <circle cx="11.9998" cy="1.83425" r="1.33333" fill="#FF3A3A"/>
  <circle cx="17.3333" cy="1.83425" r="1.33333" fill="#FF3A3A"/>
  <circle cx="22.6668" cy="1.83425" r="1.33333" fill="#FF3A3A"/>
  <circle cx="27.9998" cy="1.83425" r="1.33333" fill="#FF3A3A"/>
  <circle cx="33.3333" cy="1.83425" r="1.33333" fill="#FF3A3A"/>
  <circle cx="38.6668" cy="1.83425" r="1.13333" stroke="#FF3A3A" stroke-width="0.4"/>
  <circle cx="43.9998" cy="1.83425" r="1.13333" stroke="#FF3A3A" stroke-width="0.4"/>
  <circle cx="49.3333" cy="1.83425" r="1.13333" stroke="#FF3A3A" stroke-width="0.4"/>
  <circle cx="54.6668" cy="1.83425" r="1.33333" fill="#FF3A3A"/>
  <circle cx="59.9998" cy="1.83425" r="1.33333" fill="#FF3A3A"/>
  <circle cx="65.3333" cy="1.83425" r="1.33333" fill="#FF3A3A"/>
  <circle cx="70.6668" cy="1.83425" r="1.33333" fill="#FF3A3A"/>
  <circle cx="75.9998" cy="1.83425" r="1.33333" fill="#FF3A3A"/>
  <circle cx="81.3333" cy="1.83425" r="1.33333" fill="#FF3A3A"/>
  <circle cx="86.6668" cy="1.83425" r="1.33333" fill="#FF3A3A"/>
  <circle cx="91.9998" cy="1.83425" r="1.13333" stroke="#FF3A3A" stroke-width="0.4"/>
  <circle cx="97.3333" cy="1.83425" r="1.13333" stroke="#FF3A3A" stroke-width="0.4"/>
  <circle cx="102.667" cy="1.83425" r="1.13333" stroke="#FF3A3A" stroke-width="0.4"/>
  <circle cx="1.33236" cy="7.16713" r="1.33333" fill="#FF3A3A"/>
  <circle cx="6.66585" cy="7.1671" r="1.33333" fill="#FF3A3A"/>
  <circle cx="11.9989" cy="7.1671" r="1.33333" fill="#FF3A3A"/>
  <circle cx="17.3324" cy="7.1671" r="1.33333" fill="#FF3A3A"/>
  <circle cx="22.6659" cy="7.1671" r="1.33333" fill="#FF3A3A"/>
  <circle cx="27.9989" cy="7.1671" r="1.33333" fill="#FF3A3A"/>
  <circle cx="33.3324" cy="7.1671" r="1.33333" fill="#FF3A3A"/>
  <circle cx="38.6659" cy="7.1671" r="1.13333" stroke="#FF3A3A" stroke-width="0.4"/>
  <circle cx="43.9989" cy="7.1671" r="1.13333" stroke="#FF3A3A" stroke-width="0.4"/>
  <circle cx="49.3324" cy="7.1671" r="1.13333" stroke="#FF3A3A" stroke-width="0.4"/>
  <circle cx="54.6659" cy="7.1671" r="1.33333" fill="#FF3A3A"/>
  <circle cx="59.9989" cy="7.1671" r="1.33333" fill="#FF3A3A"/>
  <circle cx="65.3324" cy="7.1671" r="1.33333" fill="#FF3A3A"/>
  <circle cx="70.6659" cy="7.1671" r="1.33333" fill="#FF3A3A"/>
  <circle cx="75.9989" cy="7.1671" r="1.33333" fill="#FF3A3A"/>
  <circle cx="81.3324" cy="7.1671" r="1.33333" fill="#FF3A3A"/>
  <circle cx="86.6659" cy="7.1671" r="1.33333" fill="#FF3A3A"/>
  <circle cx="91.9989" cy="7.1671" r="1.13333" stroke="#FF3A3A" stroke-width="0.4"/>
  <circle cx="97.3324" cy="7.1671" r="1.13333" stroke="#FF3A3A" stroke-width="0.4"/>
  <circle cx="102.666" cy="7.1671" r="1.13333" stroke="#FF3A3A" stroke-width="0.4"/>
  <circle cx="102.666" cy="18.1667" r="1.33333" transform="rotate(-180 102.666 18.1667)" fill="#FF3A3A"/>
  <circle cx="97.3322" cy="18.1667" r="1.33333" transform="rotate(-180 97.3322 18.1667)" fill="#FF3A3A"/>
  <circle cx="91.9992" cy="18.1667" r="1.33333" transform="rotate(-180 91.9992 18.1667)" fill="#FF3A3A"/>
  <circle cx="86.6657" cy="18.1667" r="1.33333" transform="rotate(-180 86.6657 18.1667)" fill="#FF3A3A"/>
  <circle cx="81.3322" cy="18.1667" r="1.33333" transform="rotate(-180 81.3322 18.1667)" fill="#FF3A3A"/>
  <circle cx="75.9992" cy="18.1667" r="1.33333" transform="rotate(-180 75.9992 18.1667)" fill="#FF3A3A"/>
  <circle cx="70.6657" cy="18.1667" r="1.33333" transform="rotate(-180 70.6657 18.1667)" fill="#FF3A3A"/>
  <circle cx="65.3322" cy="18.1667" r="1.13333" transform="rotate(-180 65.3322 18.1667)" stroke="#FF3A3A" stroke-width="0.4"/>
  <circle cx="59.9992" cy="18.1667" r="1.13333" transform="rotate(-180 59.9992 18.1667)" stroke="#FF3A3A" stroke-width="0.4"/>
  <circle cx="54.6657" cy="18.1667" r="1.13333" transform="rotate(-180 54.6657 18.1667)" stroke="#FF3A3A" stroke-width="0.4"/>
  <circle cx="49.3322" cy="18.1667" r="1.33333" transform="rotate(-180 49.3322 18.1667)" fill="#FF3A3A"/>
  <circle cx="43.9992" cy="18.1667" r="1.33333" transform="rotate(-180 43.9992 18.1667)" fill="#FF3A3A"/>
  <circle cx="38.6657" cy="18.1667" r="1.33333" transform="rotate(-180 38.6657 18.1667)" fill="#FF3A3A"/>
  <circle cx="33.3322" cy="18.1667" r="1.33333" transform="rotate(-180 33.3322 18.1667)" fill="#FF3A3A"/>
  <circle cx="27.9992" cy="18.1667" r="1.33333" transform="rotate(-180 27.9992 18.1667)" fill="#FF3A3A"/>
  <circle cx="22.6657" cy="18.1667" r="1.33333" transform="rotate(-180 22.6657 18.1667)" fill="#FF3A3A"/>
  <circle cx="17.3322" cy="18.1667" r="1.33333" transform="rotate(-180 17.3322 18.1667)" fill="#FF3A3A"/>
  <circle cx="11.9992" cy="18.1667" r="1.13333" transform="rotate(-180 11.9992 18.1667)" stroke="#FF3A3A" stroke-width="0.4"/>
  <circle cx="6.66569" cy="18.1667" r="1.13333" transform="rotate(-180 6.66569 18.1667)" stroke="#FF3A3A" stroke-width="0.4"/>
  <circle cx="1.33219" cy="18.1667" r="1.13333" transform="rotate(-180 1.33219 18.1667)" stroke="#FF3A3A" stroke-width="0.4"/>
  <circle cx="102.667" cy="12.8338" r="1.33333" transform="rotate(-180 102.667 12.8338)" fill="#FF3A3A"/>
  <circle cx="97.3332" cy="12.8338" r="1.33333" transform="rotate(-180 97.3332 12.8338)" fill="#FF3A3A"/>
  <circle cx="92.0002" cy="12.8338" r="1.33333" transform="rotate(-180 92.0002 12.8338)" fill="#FF3A3A"/>
  <circle cx="86.6667" cy="12.8338" r="1.33333" transform="rotate(-180 86.6667 12.8338)" fill="#FF3A3A"/>
  <circle cx="81.3332" cy="12.8338" r="1.33333" transform="rotate(-180 81.3332 12.8338)" fill="#FF3A3A"/>
  <circle cx="76.0002" cy="12.8338" r="1.33333" transform="rotate(-180 76.0002 12.8338)" fill="#FF3A3A"/>
  <circle cx="70.6667" cy="12.8338" r="1.33333" transform="rotate(-180 70.6667 12.8338)" fill="#FF3A3A"/>
  <circle cx="65.3332" cy="12.8338" r="1.13333" transform="rotate(-180 65.3332 12.8338)" stroke="#FF3A3A" stroke-width="0.4"/>
  <circle cx="60.0002" cy="12.8338" r="1.13333" transform="rotate(-180 60.0002 12.8338)" stroke="#FF3A3A" stroke-width="0.4"/>
  <circle cx="54.6667" cy="12.8338" r="1.13333" transform="rotate(-180 54.6667 12.8338)" stroke="#FF3A3A" stroke-width="0.4"/>
  <circle cx="49.3332" cy="12.8338" r="1.33333" transform="rotate(-180 49.3332 12.8338)" fill="#FF3A3A"/>
  <circle cx="44.0002" cy="12.8338" r="1.33333" transform="rotate(-180 44.0002 12.8338)" fill="#FF3A3A"/>
  <circle cx="38.6667" cy="12.8338" r="1.33333" transform="rotate(-180 38.6667 12.8338)" fill="#FF3A3A"/>
  <circle cx="33.3332" cy="12.8338" r="1.33333" transform="rotate(-180 33.3332 12.8338)" fill="#FF3A3A"/>
  <circle cx="28.0002" cy="12.8338" r="1.33333" transform="rotate(-180 28.0002 12.8338)" fill="#FF3A3A"/>
  <circle cx="22.6667" cy="12.8338" r="1.33333" transform="rotate(-180 22.6667 12.8338)" fill="#FF3A3A"/>
  <circle cx="17.3332" cy="12.8338" r="1.33333" transform="rotate(-180 17.3332 12.8338)" fill="#FF3A3A"/>
  <circle cx="12.0002" cy="12.8338" r="1.13333" transform="rotate(-180 12.0002 12.8338)" stroke="#FF3A3A" stroke-width="0.4"/>
  <circle cx="6.66667" cy="12.8338" r="1.13333" transform="rotate(-180 6.66667 12.8338)" stroke="#FF3A3A" stroke-width="0.4"/>
  <circle cx="1.33317" cy="12.8338" r="1.13333" transform="rotate(-180 1.33317 12.8338)" stroke="#FF3A3A" stroke-width="0.4"/>
  <circle cx="1.33333" cy="23.8333" r="1.33333" fill="#FF3A3A"/>
  <circle cx="6.66683" cy="23.8333" r="1.33333" fill="#FF3A3A"/>
  <circle cx="11.9998" cy="23.8333" r="1.33333" fill="#FF3A3A"/>
  <circle cx="17.3333" cy="23.8333" r="1.33333" fill="#FF3A3A"/>
  <circle cx="22.6668" cy="23.8333" r="1.33333" fill="#FF3A3A"/>
  <circle cx="27.9998" cy="23.8333" r="1.33333" fill="#FF3A3A"/>
  <circle cx="33.3333" cy="23.8333" r="1.33333" fill="#FF3A3A"/>
  <circle cx="38.6668" cy="23.8333" r="1.13333" stroke="#FF3A3A" stroke-width="0.4"/>
  <circle cx="43.9998" cy="23.8333" r="1.13333" stroke="#FF3A3A" stroke-width="0.4"/>
  <circle cx="49.3333" cy="23.8333" r="1.13333" stroke="#FF3A3A" stroke-width="0.4"/>
  <circle cx="54.6668" cy="23.8333" r="1.33333" fill="#FF3A3A"/>
  <circle cx="59.9998" cy="23.8333" r="1.33333" fill="#FF3A3A"/>
  <circle cx="65.3333" cy="23.8333" r="1.33333" fill="#FF3A3A"/>
  <circle cx="70.6668" cy="23.8333" r="1.33333" fill="#FF3A3A"/>
  <circle cx="75.9998" cy="23.8333" r="1.33333" fill="#FF3A3A"/>
  <circle cx="81.3333" cy="23.8333" r="1.33333" fill="#FF3A3A"/>
  <circle cx="86.6668" cy="23.8333" r="1.33333" fill="#FF3A3A"/>
  <circle cx="91.9998" cy="23.8333" r="1.13333" stroke="#FF3A3A" stroke-width="0.4"/>
  <circle cx="97.3333" cy="23.8333" r="1.13333" stroke="#FF3A3A" stroke-width="0.4"/>
  <circle cx="102.667" cy="23.8333" r="1.13333" stroke="#FF3A3A" stroke-width="0.4"/>
  <circle cx="1.33236" cy="29.1662" r="1.33333" fill="#FF3A3A"/>
  <circle cx="6.66585" cy="29.1662" r="1.33333" fill="#FF3A3A"/>
  <circle cx="11.9989" cy="29.1662" r="1.33333" fill="#FF3A3A"/>
  <circle cx="17.3324" cy="29.1662" r="1.33333" fill="#FF3A3A"/>
  <circle cx="22.6659" cy="29.1662" r="1.33333" fill="#FF3A3A"/>
  <circle cx="27.9989" cy="29.1662" r="1.33333" fill="#FF3A3A"/>
  <circle cx="33.3324" cy="29.1662" r="1.33333" fill="#FF3A3A"/>
  <circle cx="38.6659" cy="29.1662" r="1.13333" stroke="#FF3A3A" stroke-width="0.4"/>
  <circle cx="43.9989" cy="29.1662" r="1.13333" stroke="#FF3A3A" stroke-width="0.4"/>
  <circle cx="49.3324" cy="29.1662" r="1.13333" stroke="#FF3A3A" stroke-width="0.4"/>
  <circle cx="54.6659" cy="29.1662" r="1.33333" fill="#FF3A3A"/>
  <circle cx="59.9989" cy="29.1662" r="1.33333" fill="#FF3A3A"/>
  <circle cx="65.3324" cy="29.1662" r="1.33333" fill="#FF3A3A"/>
  <circle cx="70.6659" cy="29.1662" r="1.33333" fill="#FF3A3A"/>
  <circle cx="75.9989" cy="29.1662" r="1.33333" fill="#FF3A3A"/>
  <circle cx="81.3324" cy="29.1662" r="1.33333" fill="#FF3A3A"/>
  <circle cx="86.6659" cy="29.1662" r="1.33333" fill="#FF3A3A"/>
  <circle cx="91.9989" cy="29.1662" r="1.13333" stroke="#FF3A3A" stroke-width="0.4"/>
  <circle cx="97.3324" cy="29.1662" r="1.13333" stroke="#FF3A3A" stroke-width="0.4"/>
  <circle cx="102.666" cy="29.1662" r="1.13333" stroke="#FF3A3A" stroke-width="0.4"/>
  <circle cx="102.666" cy="40.1658" r="1.33333" transform="rotate(-180 102.666 40.1658)" fill="#FF3A3A"/>
  <circle cx="97.3322" cy="40.1658" r="1.33333" transform="rotate(-180 97.3322 40.1658)" fill="#FF3A3A"/>
  <circle cx="91.9992" cy="40.1658" r="1.33333" transform="rotate(-180 91.9992 40.1658)" fill="#FF3A3A"/>
  <circle cx="86.6657" cy="40.1658" r="1.33333" transform="rotate(-180 86.6657 40.1658)" fill="#FF3A3A"/>
  <circle cx="81.3322" cy="40.1658" r="1.33333" transform="rotate(-180 81.3322 40.1658)" fill="#FF3A3A"/>
  <circle cx="75.9992" cy="40.1658" r="1.33333" transform="rotate(-180 75.9992 40.1658)" fill="#FF3A3A"/>
  <circle cx="70.6657" cy="40.1658" r="1.33333" transform="rotate(-180 70.6657 40.1658)" fill="#FF3A3A"/>
  <circle cx="65.3322" cy="40.1658" r="1.13333" transform="rotate(-180 65.3322 40.1658)" stroke="#FF3A3A" stroke-width="0.4"/>
  <circle cx="59.9992" cy="40.1658" r="1.13333" transform="rotate(-180 59.9992 40.1658)" stroke="#FF3A3A" stroke-width="0.4"/>
  <circle cx="54.6657" cy="40.1658" r="1.13333" transform="rotate(-180 54.6657 40.1658)" stroke="#FF3A3A" stroke-width="0.4"/>
  <circle cx="49.3322" cy="40.1658" r="1.33333" transform="rotate(-180 49.3322 40.1658)" fill="#FF3A3A"/>
  <circle cx="43.9992" cy="40.1658" r="1.33333" transform="rotate(-180 43.9992 40.1658)" fill="#FF3A3A"/>
  <circle cx="38.6657" cy="40.1658" r="1.33333" transform="rotate(-180 38.6657 40.1658)" fill="#FF3A3A"/>
  <circle cx="33.3322" cy="40.1658" r="1.33333" transform="rotate(-180 33.3322 40.1658)" fill="#FF3A3A"/>
  <circle cx="27.9992" cy="40.1658" r="1.33333" transform="rotate(-180 27.9992 40.1658)" fill="#FF3A3A"/>
  <circle cx="22.6657" cy="40.1658" r="1.33333" transform="rotate(-180 22.6657 40.1658)" fill="#FF3A3A"/>
  <circle cx="17.3322" cy="40.1658" r="1.33333" transform="rotate(-180 17.3322 40.1658)" fill="#FF3A3A"/>
  <circle cx="11.9992" cy="40.1658" r="1.13333" transform="rotate(-180 11.9992 40.1658)" stroke="#FF3A3A" stroke-width="0.4"/>
  <circle cx="6.66569" cy="40.1658" r="1.13333" transform="rotate(-180 6.66569 40.1658)" stroke="#FF3A3A" stroke-width="0.4"/>
  <circle cx="1.33219" cy="40.1658" r="1.13333" transform="rotate(-180 1.33219 40.1658)" stroke="#FF3A3A" stroke-width="0.4"/>
  <circle cx="102.667" cy="34.8329" r="1.33333" transform="rotate(-180 102.667 34.8329)" fill="#FF3A3A"/>
  <circle cx="97.3332" cy="34.8329" r="1.33333" transform="rotate(-180 97.3332 34.8329)" fill="#FF3A3A"/>
  <circle cx="92.0002" cy="34.8329" r="1.33333" transform="rotate(-180 92.0002 34.8329)" fill="#FF3A3A"/>
  <circle cx="86.6667" cy="34.8329" r="1.33333" transform="rotate(-180 86.6667 34.8329)" fill="#FF3A3A"/>
  <circle cx="81.3332" cy="34.8329" r="1.33333" transform="rotate(-180 81.3332 34.8329)" fill="#FF3A3A"/>
  <circle cx="76.0002" cy="34.8329" r="1.33333" transform="rotate(-180 76.0002 34.8329)" fill="#FF3A3A"/>
  <circle cx="70.6667" cy="34.8329" r="1.33333" transform="rotate(-180 70.6667 34.8329)" fill="#FF3A3A"/>
  <circle cx="65.3332" cy="34.8329" r="1.13333" transform="rotate(-180 65.3332 34.8329)" stroke="#FF3A3A" stroke-width="0.4"/>
  <circle cx="60.0002" cy="34.8329" r="1.13333" transform="rotate(-180 60.0002 34.8329)" stroke="#FF3A3A" stroke-width="0.4"/>
  <circle cx="54.6667" cy="34.8329" r="1.13333" transform="rotate(-180 54.6667 34.8329)" stroke="#FF3A3A" stroke-width="0.4"/>
  <circle cx="49.3332" cy="34.8329" r="1.33333" transform="rotate(-180 49.3332 34.8329)" fill="#FF3A3A"/>
  <circle cx="44.0002" cy="34.8329" r="1.33333" transform="rotate(-180 44.0002 34.8329)" fill="#FF3A3A"/>
  <circle cx="38.6667" cy="34.8329" r="1.33333" transform="rotate(-180 38.6667 34.8329)" fill="#FF3A3A"/>
  <circle cx="33.3332" cy="34.8329" r="1.33333" transform="rotate(-180 33.3332 34.8329)" fill="#FF3A3A"/>
  <circle cx="28.0002" cy="34.8329" r="1.33333" transform="rotate(-180 28.0002 34.8329)" fill="#FF3A3A"/>
  <circle cx="22.6667" cy="34.8329" r="1.33333" transform="rotate(-180 22.6667 34.8329)" fill="#FF3A3A"/>
  <circle cx="17.3332" cy="34.8329" r="1.33333" transform="rotate(-180 17.3332 34.8329)" fill="#FF3A3A"/>
  <circle cx="12.0002" cy="34.8329" r="1.13333" transform="rotate(-180 12.0002 34.8329)" stroke="#FF3A3A" stroke-width="0.4"/>
  <circle cx="6.66667" cy="34.8329" r="1.13333" transform="rotate(-180 6.66667 34.8329)" stroke="#FF3A3A" stroke-width="0.4"/>
  <circle cx="1.33317" cy="34.8329" r="1.13333" transform="rotate(-180 1.33317 34.8329)" stroke="#FF3A3A" stroke-width="0.4"/>
</svg>
