<svg xmlns="http://www.w3.org/2000/svg" viewBox="0 0 166 40" fill="none" preserveAspectRatio="none">
  <path d="M154.3 40L165.9 27.9V27.2L153.6 40H154.3Z" fill="currentColor"/>
  <path d="M150.8 40L165.9 24.3V23.5L150.1 40H150.8Z" fill="currentColor"/>
  <path d="M136.6 40L165.9 9.5V8.8L135.9 40H136.6Z" fill="currentColor"/>
  <path d="M143.7 40L165.9 16.9V16.2L143 40H143.7Z" fill="currentColor"/>
  <path d="M165 40L165.9 39V38.3L164.3 40H165Z" fill="currentColor"/>
  <path d="M133.1 40L165.9 5.9V5.1L132.4 40H133.1Z" fill="currentColor"/>
  <path d="M128.9 40H129.6L165.9 2.2V1.4L128.9 40Z" fill="currentColor"/>
  <path d="M140.2 40L165.9 13.2V12.5L139.5 40H140.2Z" fill="currentColor"/>
  <path d="M161.4 40L165.9 35.3V34.6L160.7 40H161.4Z" fill="currentColor"/>
  <path d="M147.2 40L165.9 20.6V19.9L146.6 40H147.2Z" fill="currentColor"/>
  <path d="M157.9 40L165.9 31.6V30.9L157.2 40H157.9Z" fill="currentColor"/>
  <path d="M57.5999 0L19.0999 40H19.7999L58.1999 0H57.5999Z" fill="currentColor"/>
  <path d="M15.0999 0L-0.100098 15.9V16.6L15.7999 0H15.0999Z" fill="currentColor"/>
  <path d="M50.4999 0L11.9999 40H12.6999L51.1999 0H50.4999Z" fill="currentColor"/>
  <path d="M39.8999 0L1.3999 40H2.0999L40.4999 0H39.8999Z" fill="currentColor"/>
  <path d="M53.9999 0L15.5999 40H16.2999L54.6999 0H53.9999Z" fill="currentColor"/>
  <path d="M43.3999 0L4.9999 40H5.6999L44.0999 0H43.3999Z" fill="currentColor"/>
  <path d="M46.8999 0L8.4999 40H9.1999L47.5999 0H46.8999Z" fill="currentColor"/>
  <path d="M82.2999 0L43.8999 40H44.5999L82.9999 0H82.2999Z" fill="currentColor"/>
  <path d="M78.7999 0L40.3999 40H41.0999L79.4999 0H78.7999Z" fill="currentColor"/>
  <path d="M89.3999 0L50.9999 40H51.6999L90.0999 0H89.3999Z" fill="currentColor"/>
  <path d="M92.9999 0L54.4999 40H55.1999L93.5999 0H92.9999Z" fill="currentColor"/>
  <path d="M85.8999 0L47.3999 40H48.0999L86.5999 0H85.8999Z" fill="currentColor"/>
  <path d="M7.9999 0L-0.100098 8.5V9.2L8.6999 0H7.9999Z" fill="currentColor"/>
  <path d="M75.2999 0L36.7999 40H37.4999L75.8999 0H75.2999Z" fill="currentColor"/>
  <path d="M11.4999 0L-0.100098 12.2V12.9L12.1999 0H11.4999Z" fill="currentColor"/>
  <path d="M4.4999 0L-0.100098 4.8V5.6L5.0999 0H4.4999Z" fill="currentColor"/>
  <path d="M18.5999 0L-0.100098 19.6V20.3L19.2999 0H18.5999Z" fill="currentColor"/>
  <path d="M61.0999 0L22.6999 40H23.3999L61.7999 0H61.0999Z" fill="currentColor"/>
  <path d="M0.899902 0L-0.100098 1.2V1.9L1.5999 0H0.899902Z" fill="currentColor"/>
  <path d="M25.6999 0L-0.100098 26.9V27.6L26.3999 0H25.6999Z" fill="currentColor"/>
  <path d="M22.1999 0L-0.100098 23.2V24L22.7999 0H22.1999Z" fill="currentColor"/>
  <path d="M36.2999 0L-0.100098 38V38.7L36.9999 0H36.2999Z" fill="currentColor"/>
  <path d="M32.7999 0L-0.100098 34.3V35L33.4999 0H32.7999Z" fill="currentColor"/>
  <path d="M29.1999 0L-0.100098 30.6V31.3L29.8999 0H29.1999Z" fill="currentColor"/>
  <path d="M160.2 0L121.8 40H122.5L160.9 0H160.2Z" fill="currentColor"/>
  <path d="M139 0L100.5 40H101.2L139.7 0H139Z" fill="currentColor"/>
  <path d="M135.4 0L96.9999 40H97.6999L136.1 0H135.4Z" fill="currentColor"/>
  <path d="M124.8 0L86.3999 40H87.0999L125.5 0H124.8Z" fill="currentColor"/>
  <path d="M131.9 0L93.4999 40H94.1999L132.6 0H131.9Z" fill="currentColor"/>
  <path d="M142.5 0L104.1 40H104.8L143.2 0H142.5Z" fill="currentColor"/>
  <path d="M128.4 0L89.8999 40H90.5999L129 0H128.4Z" fill="currentColor"/>
  <path d="M149.6 0L111.2 40H111.9L150.3 0H149.6Z" fill="currentColor"/>
  <path d="M163.8 0L125.3 40H126L164.4 0H163.8Z" fill="currentColor"/>
  <path d="M156.7 0L118.2 40H118.9L157.4 0H156.7Z" fill="currentColor"/>
  <path d="M153.1 0L114.7 40H115.4L153.8 0H153.1Z" fill="currentColor"/>
  <path d="M146 0L107.6 40H108.3L146.7 0H146Z" fill="currentColor"/>
  <path d="M96.4999 0L58.0999 40H58.7999L97.1999 0H96.4999Z" fill="currentColor"/>
  <path d="M99.9999 0L61.5999 40H62.2999L100.7 0H99.9999Z" fill="currentColor"/>
  <path d="M71.6999 0L33.2999 40H33.9999L72.3999 0H71.6999Z" fill="currentColor"/>
  <path d="M68.1999 0L29.6999 40H30.3999L68.8999 0H68.1999Z" fill="currentColor"/>
  <path d="M121.3 0L82.7999 40H83.4999L122 0H121.3Z" fill="currentColor"/>
  <path d="M64.5999 0L26.1999 40H26.8999L65.2999 0H64.5999Z" fill="currentColor"/>
  <path d="M103.6 0L65.0999 40H65.7999L104.3 0H103.6Z" fill="currentColor"/>
  <path d="M107.1 0L68.6999 40H69.3999L107.8 0H107.1Z" fill="currentColor"/>
  <path d="M114.2 0L75.7999 40H76.4999L114.9 0H114.2Z" fill="currentColor"/>
  <path d="M117.7 0L79.2999 40H79.9999L118.4 0H117.7Z" fill="currentColor"/>
  <path d="M110.7 0L72.1999 40H72.8999L111.3 0H110.7Z" fill="currentColor"/>
</svg>