<svg width="36" height="42" viewBox="0 0 36 42" fill="none" xmlns="http://www.w3.org/2000/svg">
<g id="Templar Logo">
<path id="Vector" d="M29.6892 0.869507C26.8967 0.869507 24.6035 2.51962 23.679 5.73524C23.588 6.05257 23.4526 6.52856 23.2855 7.12091C23.2855 7.12091 23.2813 7.1188 23.2792 7.11668L21.8596 12.1897C21.0346 15.1282 20.1101 18.4348 19.4225 20.8931L18.3923 24.572L17.362 20.8931C16.6745 18.4348 15.75 15.1282 14.9249 12.1897L13.5054 7.11668C13.5054 7.11668 13.5012 7.1188 13.499 7.12091C13.3319 6.52856 13.1965 6.05257 13.1055 5.73524C12.1789 2.51962 9.88782 0.869507 7.09319 0.869507C4.0299 0.869507 1.76205 2.20018 0.784668 3.8101C4.80207 3.07178 5.74983 5.34598 6.9303 9.75264C6.9303 9.75264 9.31874 18.2106 9.40759 18.4454C10.2115 21.0158 12.1663 23.0784 14.6668 24.0325C15.7182 24.481 16.8691 24.7433 18.0749 24.7814C17.0785 27.2608 14.047 34.9571 14.047 36.9309C14.047 39.2919 15.9911 41.2085 18.3902 41.2085C20.7892 41.2085 22.7355 39.294 22.7355 36.9309C22.7355 34.9571 19.7039 27.2608 18.7075 24.7814C19.9133 24.7412 21.0642 24.481 22.1177 24.0325C24.6204 23.0805 26.573 21.0179 27.377 18.4454C27.4679 18.2106 29.8542 9.75264 29.8542 9.75264C31.0347 5.3481 31.9825 3.07178 35.9999 3.8101C35.0225 2.20229 32.7546 0.869507 29.6913 0.869507L29.6892 0.869507Z" fill="#FF3A3A"/>
</g>
</svg>
